<svg width="33" height="55" viewBox="0 0 33 55" fill="none" xmlns="http://www.w3.org/2000/svg">
<rect x="0.5" y="0.5" width="32" height="54" rx="16" stroke="#F5F5F5"/>
<path d="M10.7118 28.5867C10.7989 28.4993 10.9023 28.43 11.0163 28.3827C11.1303 28.3353 11.2524 28.311 11.3758 28.311C11.4992 28.311 11.6214 28.3353 11.7353 28.3827C11.8493 28.43 11.9528 28.4993 12.0399 28.5867L16.0625 32.6094V21.125C16.0625 20.8764 16.1613 20.6379 16.3371 20.4621C16.5129 20.2863 16.7514 20.1875 17 20.1875C17.2487 20.1875 17.4871 20.2863 17.6629 20.4621C17.8388 20.6379 17.9375 20.8764 17.9375 21.125V32.6094L21.9618 28.5867C22.1379 28.4106 22.3767 28.3117 22.6258 28.3117C22.8749 28.3117 23.1138 28.4106 23.2899 28.5867C23.466 28.7628 23.5649 29.0017 23.5649 29.2508C23.5649 29.4999 23.466 29.7387 23.2899 29.9148L17.6649 35.5398C17.5778 35.6272 17.4743 35.6966 17.3603 35.7439C17.2464 35.7912 17.1242 35.8156 17.0008 35.8156C16.8774 35.8156 16.7553 35.7912 16.6413 35.7439C16.5273 35.6966 16.4238 35.6272 16.3368 35.5398L10.7118 29.9148C10.6244 29.8277 10.555 29.7243 10.5077 29.6103C10.4604 29.4963 10.436 29.3742 10.436 29.2508C10.436 29.1274 10.4604 29.0052 10.5077 28.8913C10.555 28.7773 10.6244 28.6738 10.7118 28.5867Z" fill="#F5F5F5"/>
</svg>
